<svg xmlns="http://www.w3.org/2000/svg" xmlns:xlink="http://www.w3.org/1999/xlink" version="1.1" x="0px" y="0px" viewBox="0 0 100 100" enable-background="new 0 0 100 100" xml:space="preserve"><symbol viewBox="-27.299 -39.024 54.598 78.047"><path fill="none" d="M11.157,34.02c-1.275-1.85-3.408-3.026-5.733-3.026c-2.13,0-4.118,0.985-5.424,2.607   c-1.306-1.622-3.294-2.607-5.423-2.607c-2.325,0-4.457,1.176-5.734,3.026c-1.275-1.85-3.408-3.026-5.733-3.026   c-1.913,0-3.648,0.776-4.908,2.029v-66.474c1.26,1.253,2.995,2.029,4.908,2.029c2.325,0,4.458-1.176,5.733-3.026   c1.277,1.85,3.409,3.026,5.734,3.026c2.129,0,4.117-0.986,5.423-2.607c1.306,1.622,3.294,2.607,5.424,2.607   c2.325,0,4.458-1.176,5.733-3.026c1.277,1.85,3.409,3.026,5.734,3.026c1.913,0,3.647-0.776,4.907-2.028v66.473   c-1.26-1.253-2.994-2.028-4.907-2.028C14.567,30.995,12.435,32.17,11.157,34.02z"/><path fill="#000000" stroke="#000000" stroke-width="3" stroke-miterlimit="10" d="M-20.463-37.524   c0.391,1.615,1.839,2.822,3.573,2.822c1.733,0,3.181-1.207,3.572-2.822h4.323c0.391,1.615,1.839,2.822,3.573,2.822   s3.182-1.207,3.573-2.822h3.701c0.391,1.615,1.839,2.822,3.573,2.822s3.182-1.207,3.573-2.822h4.322   c0.391,1.615,1.839,2.822,3.573,2.822s3.182-1.207,3.573-2.822h5.335v75.047h-5.266c-0.219-1.825-1.759-3.25-3.641-3.25   s-3.423,1.425-3.641,3.25H9.065c-0.219-1.825-1.759-3.25-3.641-3.25s-3.423,1.425-3.641,3.25h-3.564   c-0.219-1.825-1.759-3.25-3.641-3.25s-3.423,1.425-3.641,3.25h-4.186c-0.219-1.825-1.758-3.25-3.641-3.25   c-1.883,0-3.423,1.425-3.641,3.25h-5.267v-75.047H-20.463z"/></symbol><symbol viewBox="-30.282 -48.056 60.563 94.113"><path fill="#000000" stroke="#000000" stroke-width="6" stroke-miterlimit="10" d="M16.006,43.056   c-3.233-4.883-8.77-8.108-15.065-8.108s-11.832,3.225-15.065,8.108h-10.584v-88.113h10.584c3.233,4.883,8.77,8.108,15.065,8.108   s11.832-3.224,15.065-8.108H26.59v88.113H16.006z"/><line fill="none" stroke="#000000" stroke-width="5" stroke-linecap="round" stroke-linejoin="round" stroke-miterlimit="10" stroke-dasharray="7,8" x1="27.781" y1="-20.755" x2="-27.782" y2="-20.755"/></symbol><symbol viewBox="-24.712 -42.834 54.356 85.667"><path fill="#000000" stroke="#000000" stroke-width="5" stroke-miterlimit="10" d="M17.181,40.333h-4.475   c-0.466-2.355-2.539-4.131-5.031-4.131c-2.491,0-4.565,1.776-5.03,4.131h-4.883c-0.466-2.355-2.539-4.131-5.031-4.131   c-2.491,0-4.565,1.776-5.03,4.131h-4.883c-0.466-2.355-2.539-4.131-5.03-4.131v-72.023c2.622,0,4.76-1.974,5.069-4.512h4.806   c0.309,2.539,2.447,4.512,5.069,4.512c2.622,0,4.76-1.974,5.069-4.512h4.806c0.309,2.539,2.447,4.512,5.069,4.512   c2.622,0,4.76-1.974,5.069-4.512h4.398c0.309,2.539,2.447,4.512,5.069,4.512v72.023C19.72,36.202,17.647,37.978,17.181,40.333z"/><line fill="none" stroke="#000000" stroke-width="4" stroke-linecap="round" stroke-linejoin="round" stroke-miterlimit="10" stroke-dasharray="7,6" x1="-22.644" y1="-17.395" x2="27.644" y2="-17.395"/></symbol><symbol viewBox="-23.971 -42.094 47.944 84.188"><g><path fill="#000000" stroke="#000000" stroke-width="3.521" stroke-miterlimit="10" d="M17.182,40.333h-4.475    c-0.466-2.355-2.539-4.131-5.031-4.131c-2.491,0-4.565,1.776-5.03,4.131h-4.883c-0.466-2.355-2.539-4.131-5.031-4.131    c-2.491,0-4.565,1.776-5.03,4.131h-4.883c-0.466-2.355-2.539-4.131-5.03-4.131v-72.023c2.622,0,4.76-1.974,5.069-4.512h4.806    c0.309,2.539,2.447,4.512,5.069,4.512c2.622,0,4.76-1.974,5.069-4.512h4.806c0.309,2.539,2.447,4.512,5.069,4.512    c2.622,0,4.76-1.974,5.069-4.512h4.398c0.309,2.539,2.447,4.512,5.069,4.512v72.023C19.721,36.202,17.648,37.978,17.182,40.333z"/></g><polygon fill="#000000" stroke="#000000" stroke-width="3.8113" stroke-miterlimit="10" points="5.14,17.02 11.952,13.853    8.431,7.217 7.524,-0.241 0.124,1.057 -7.248,-0.385 -8.301,7.053 -11.951,13.62 -5.201,16.919 -0.084,22.42  "/></symbol><symbol id="a" viewBox="-21.087 -31.266 42.17 72.87"><path fill="#000000" stroke="#000000" stroke-width="5" stroke-miterlimit="10" d="M6.373,39.104h5.21c0-3.87,3.13-7,7-7v-53.87   c-3.87,0-7-3.14-7-7h-5.21"/><path fill="#000000" stroke="#000000" stroke-width="5" stroke-miterlimit="10" d="M-6.377-28.766h-5.21c0,3.86-3.13,7-7,7v53.87   c3.87,0,7,3.13,7,7h5.21"/><line fill="none" stroke="#000000" stroke-width="5" stroke-miterlimit="10" x1="2.373" y1="39.104" x2="-2.377" y2="39.104"/><line fill="none" stroke="#000000" stroke-width="5" stroke-miterlimit="10" x1="2.373" y1="-28.766" x2="-2.377" y2="-28.766"/><g><path stroke="#000000" stroke-width="0.9" stroke-miterlimit="10" d="M-9.901-10.118c0-0.994-0.806-1.8-1.8-1.8    s-1.8,0.806-1.8,1.8s0.806,1.8,1.8,1.8S-9.901-9.124-9.901-10.118z"/><path stroke="#000000" stroke-width="0.9" stroke-miterlimit="10" d="M-2.101-10.118c0-0.994-0.806-1.8-1.8-1.8    s-1.8,0.806-1.8,1.8s0.806,1.8,1.8,1.8S-2.101-9.124-2.101-10.118z"/><path stroke="#000000" stroke-width="0.9" stroke-miterlimit="10" d="M5.699-10.118c0-0.994-0.806-1.8-1.8-1.8s-1.8,0.806-1.8,1.8    s0.806,1.8,1.8,1.8S5.699-9.124,5.699-10.118z"/><path stroke="#000000" stroke-width="0.9" stroke-miterlimit="10" d="M13.499-10.118c0-0.994-0.806-1.8-1.8-1.8    s-1.8,0.806-1.8,1.8s0.806,1.8,1.8,1.8S13.499-9.124,13.499-10.118z"/></g></symbol><symbol viewBox="-21.086 -31.266 42.17 72.87"><use xlink:href="#a" width="42.17" height="72.87" x="-21.087" y="-31.266" transform="matrix(1 0 0 1 6.996482e-004 -2.671033e-004)" overflow="visible"/><line fill="none" stroke="#000000" stroke-width="4" stroke-miterlimit="10" x1="9.224" y1="13.75" x2="-9.223" y2="13.75"/></symbol><g display="none"><path display="inline" fill="#000000" d="M228.792,114.743h-1237.798c-2.084,0-3.789-1.705-3.789-3.789v-1187.164   c0-2.084,1.705-3.789,3.789-3.789H228.792c2.084,0,3.789,1.705,3.789,3.789V110.954   C232.582,113.038,230.877,114.743,228.792,114.743z"/></g><g><g><path d="M85.783,55.308c-1.918-1.919-4.842-2.39-7.276-1.174l-0.576,0.288l-2.925-2.925l0.498-0.623    c6.116-7.668,5.496-18.682-1.442-25.619c-1.667-1.668-3.632-3.007-5.838-3.979l-0.533-0.235v-2.221    c0-4.97-4.043-9.013-9.014-9.013H14.014C9.043,9.806,5,13.849,5,18.819v55.407c0,4.971,4.043,9.014,9.014,9.014h2.964v5.725    c0,0.4,0.201,0.767,0.538,0.979c0.34,0.216,0.757,0.241,1.118,0.071l8.267-3.913l8.385,3.982c0.361,0.169,0.786,0.142,1.116-0.068    c0.34-0.214,0.542-0.581,0.542-0.981v-5.794h21.732c4.971,0,9.014-4.043,9.014-9.014V56.714l0.532-0.235    c1.529-0.673,2.946-1.528,4.214-2.538l0.623-0.497l2.924,2.925l-0.288,0.576c-1.216,2.434-0.745,5.358,1.174,7.275l7.376,7.376    c1.187,1.187,2.77,1.84,4.456,1.84c1.687,0,3.27-0.653,4.455-1.839C94.346,70.408,95,68.825,95,67.139s-0.654-3.269-1.842-4.456    L85.783,55.308z M34.623,75.229v11.972l-7.223-3.432c-0.318-0.147-0.679-0.147-0.995,0l-7.106,3.362L19.287,75.12l-0.078-0.963    h15.484L34.623,75.229z M65.369,74.226c0,3.691-3.003,6.694-6.693,6.694H36.944v-5.724c-0.005-0.004-0.011-0.049-0.013-0.094    l-0.057-0.946H59.23c1.699,0,3.339-0.506,4.745-1.462l1.394-0.949V74.226z M65.369,65.696c0,3.385-2.754,6.139-6.139,6.139H13.459    c-0.639,0-1.16,0.521-1.16,1.161c0,0.639,0.521,1.16,1.16,1.16h3.608l-0.09,1.07v5.694h-2.964c-3.69,0-6.693-3.003-6.693-6.694    v-3.264c0-3.385,2.754-6.14,6.138-6.14H59.23c1.698,0,3.339-0.505,4.745-1.461l1.394-0.948V65.696z M64.69,59.118    c-1.057,2.087-3.149,3.384-5.46,3.384H13.459c-1.699,0-3.339,0.505-4.744,1.46L7.322,64.91V18.819c0-3.69,3.003-6.693,6.693-6.693    h44.662c3.69,0,6.693,3.003,6.693,6.693v1.413l-1.07-0.217c-6.372-1.295-12.911,0.664-17.484,5.238    c-3.633,3.633-5.634,8.471-5.634,13.624c0,5.152,2.001,9.99,5.634,13.622c3.632,3.634,8.47,5.635,13.622,5.635    c1.049,0,2.16-0.101,3.303-0.299l1.752-0.304L64.69,59.118z M72.115,50.553c-3.219,3.218-7.448,4.826-11.676,4.826    c-4.228,0-8.455-1.608-11.674-4.826h-0.001c-6.437-6.439-6.437-16.914,0-23.353c3.113-3.112,7.26-4.827,11.675-4.827    c4.416,0,8.563,1.715,11.676,4.827C78.551,33.639,78.551,44.115,72.115,50.553z M91.21,69.648L91.21,69.648    c-0.669,0.668-1.589,1.001-2.509,1.001s-1.839-0.333-2.508-1l-7.377-7.375c-0.666-0.668-1.033-1.559-1.033-2.509    s0.367-1.841,1.033-2.509c1.338-1.337,3.687-1.332,5.018-0.001l7.375,7.375c0.666,0.668,1.033,1.56,1.033,2.51    C92.243,68.09,91.877,68.981,91.21,69.648z"/></g></g></svg>